<mxfile host="65bd71144e">
    <diagram id="ukvpJ5zpEO3pPiO6sG4l" name="Page-1">
        <mxGraphModel dx="791" dy="410" grid="1" gridSize="10" guides="1" tooltips="1" connect="1" arrows="1" fold="1" page="1" pageScale="1" pageWidth="850" pageHeight="1100" math="0" shadow="0">
            <root>
                <mxCell id="0"/>
                <mxCell id="1" parent="0"/>
                <mxCell id="2" value="cliente" style="shape=umlActor;verticalLabelPosition=bottom;verticalAlign=top;html=1;" vertex="1" parent="1">
                    <mxGeometry x="80" y="100" width="30" height="60" as="geometry"/>
                </mxCell>
                <mxCell id="5" value="Use Case" style="ellipse;whiteSpace=wrap;html=1;" vertex="1" parent="1">
                    <mxGeometry x="200" y="80" width="140" height="70" as="geometry"/>
                </mxCell>
            </root>
        </mxGraphModel>
    </diagram>
</mxfile>